<?xml version="1.0"?>
<svg xmlns:rdf="http://www.w3.org/1999/02/22-rdf-syntax-ns#" xmlns="http://www.w3.org/2000/svg" xmlns:cc="http://web.resource.org/cc/" xmlns:dc="http://purl.org/dc/elements/1.1/" xmlns:svg="http://www.w3.org/2000/svg" id="svg2" viewBox="0 0 645.7 637.88" version="1.0">
  <g id="g2161" transform="translate(103.44 .0013299)">
    <path id="path2159" d="m153.83 184.33a289.1 289.1 0 1 1 -578.2 0 289.1 289.1 0 1 1 578.2 0z" fill="#f00" transform="translate(320.93 164.44)"/>
    <g id="layer1" transform="translate(-5.4832 -9.0863)">
      <g id="g3196" transform="translate(-199.29 -88.571)">
        <path id="path2221" d="m517.25 0c-7.93-0.050211-18.94 1.3307-24.16 2.5938-23.57 5.7107-64.79 37.921-97.25 61.344-26.86 19.384-63.77 23.094-68.5 35.75-4.48 11.992-46.1 119.03-55.68 131.81-9.59 12.78-39.54-1.01-53.38 3.25s-33-4.93-34.06-10.25c-1.07-5.32 23.04-16.3-7.31-7.91-57.85 16-48.97 8.5-35.13-6.4 13.84-14.91 15.95-11.69-4.28-11.69s-65.214 52.55-51.969 21.59c20.429-47.75 6.5-43.39 6.5-47.65s-23.158 31.52-34.375 39.9c-10.407 7.79-0.879-7.51 1.25-16.03 2.13-8.51 9.171-13.93 6.219-17-6.517-6.77-9.594-44.71-9.594-34.06s-26.607 85.8-31.812 84.69c-6.144-1.32-10.765-42.09-11.844-46.35-1.065-4.2-16.242-10.4-10.656-2.12 4.8896 7.25 0.0202 106.44 5.3435 104.31 5.3235-2.13 30.876 12.78 30.876 12.78s14.897-3.18 19.156-4.25c4.258-1.06 101.15 45.77 106.47 51.1 5.33 5.32-21.31 28.76-22.37 36.21-1.07 7.46 5.33 8.5 12.78 28.72 7.45 20.23-1.57 61.42 3.75 60.36 5.33-1.07 26.04-42.52 30.3-48.91s19.19-15.69 40.48-18.88c21.29-3.2 76.67 31.94 83.06 30.87 6.39-1.06 11.51 10.03 9.38 28.13s-19.23 18.67-16.72 51.09c0.87 11.3 18.34 14.14 28.62 26.19 2.77 3.24-5.34-8.53-7.46-12.78-2.13-4.26 6.4-7.44 6.4-7.44s-10.65-0.03-13.84-1.09c-3.2-1.07-9-16.99-2.13-21.29 22.77-14.22 27.68 1.07 34.07 0 6.38-1.06 12.78 13.83 10.65 5.32-2.13-8.52-13.85-17.03-24.5-20.22-10.65-3.2-5.03-15.93-4.12-21.28 1.59-9.31 7.05-10.03 9.06-2.87 2.62 9.32 17.58 22.44 14.35 16.45-3.38-6.26-7.51-17.26-4.2-16.74 2.11 0.33 16.86 6.64 12.6 4.22-16.33-9.28-15.03-14.1-15.91-23.76 2.13-2.13 20.34-3.52 25.9-3.14-1.94-4.65-28.08-8.26-30.21-9.32s-1.06-20.22-1.06-20.22 7.43-2.12 10.62-5.31c3.2-3.2 17.93 0.49 21.13 2.62 3.19 2.13 17.7-2.15 24.09-4.28s14.99 1.2 18.19-5.18c3.19-6.39 22.09 0 25.28-2.13s6.09-11.71 8.22-15.97 29.81-9.15 31.94-11.28 4.56-9.87 4.56-14.12c0-4.26 23.09-14.62 24.15-17.82 1.07-3.19 5.35-6.36 4.29-10.62-1.07-4.26 13.83-14.9 19.15-18.1 5.33-3.19 9.6-24.49 8.53-27.68-1.06-3.2-14.92 17.03-20.25 18.09-5.32 1.06-43.63 9.59-56.4 13.84-12.78 4.26-51.12 12.78-56.44 13.85-5.32 1.06-14.9-9.59-15.97-13.85-1.06-4.25 13.83-6.4 6.38-7.47-7.46-1.06-48.96-21.27-53.22-25.53-4.26-4.25 9.58-11.71 13.84-13.84s7.44-5.33 8.5-10.66c1.07-5.32 13.86-11.72 22.38-25.56 8.51-13.84 19.15-77.7 18.09-86.22-1.06-8.51 18.27-21.73 23.41-31.93 5.35-10.636 24.81-30.668 37.34-40.224 23.9-18.232 58.37-59.638 56.53-63.687-0.63-1.3943-4.27-1.9389-9.03-1.969zm-196.91 406.94c3.91-0.08 8.1 1.25 8.1 1.25 4.64-3.44 0.62 3.41 1.99 13.96 1.21 9.33 3.97 8.86-11.28 0.47-7.85-4.32-15.25 1.78-5.31-11.71 1.82-2.47 3.46-3.91 6.5-3.97z" transform="translate(204.77 97.658)" fill-rule="evenodd"/>
      </g>
    </g>
  </g>
</svg>
