<?xml version="1.0" encoding="utf-8"?>
<!-- Generator: Adobe Illustrator 27.5.0, SVG Export Plug-In . SVG Version: 6.00 Build 0)  -->
<svg version="1.1" xmlns="http://www.w3.org/2000/svg" xmlns:xlink="http://www.w3.org/1999/xlink" x="0px" y="0px"
	 viewBox="0 0 500 500" style="enable-background:new 0 0 500 500;" xml:space="preserve">
<g id="Background_Simple">
	<g>
		<path style="fill:#92E3A9;" d="M439.481,212.566c-18.192-20.118-48.67-22.37-72.371-35.558
			c-40.79-22.696-56.604-74.39-93.712-102.709c-23.433-17.882-55.092-24.814-83.405-20.894c-40.189,5.564-78.005,32.5-89.357,71.962
			c-3.15,10.951-4.411,22.826-3.44,35.411c1.816,23.55,6.882,47.403,2.104,70.533c-5.267,25.493-21.854,47.017-31.764,71.088
			c-12.338,29.968-14.037,63.605-8.761,95.581c3.6,21.819,10.776,43.845,25.759,60.109c1.132,1.228,2.311,2.402,3.513,3.548h163.609
			c10.264-13.089,18.045-28.581,27.074-42.324c22.721-34.585,59.096-59.243,98.828-70.809c17.799-5.181,37.082-8.265,51.384-20.059
			c14.716-12.135,21.476-31.496,24.402-50.344C456.888,255.278,454.972,229.697,439.481,212.566z"/>
		<path style="opacity:0.7;fill:#FFFFFF;" d="M439.481,212.566c-18.192-20.118-48.67-22.37-72.371-35.558
			c-40.79-22.696-56.604-74.39-93.712-102.709c-23.433-17.882-55.092-24.814-83.405-20.894c-40.189,5.564-78.005,32.5-89.357,71.962
			c-3.15,10.951-4.411,22.826-3.44,35.411c1.816,23.55,6.882,47.403,2.104,70.533c-5.267,25.493-21.854,47.017-31.764,71.088
			c-12.338,29.968-14.037,63.605-8.761,95.581c3.6,21.819,10.776,43.845,25.759,60.109c1.132,1.228,2.311,2.402,3.513,3.548h163.609
			c10.264-13.089,18.045-28.581,27.074-42.324c22.721-34.585,59.096-59.243,98.828-70.809c17.799-5.181,37.082-8.265,51.384-20.059
			c14.716-12.135,21.476-31.496,24.402-50.344C456.888,255.278,454.972,229.697,439.481,212.566z"/>
	</g>
</g>
<g id="Work_desk">
	<g>
		<g>
			<path style="fill:none;stroke:#263238;stroke-linecap:round;stroke-linejoin:round;stroke-miterlimit:10;" d="M63.88,405.235
				l0.2,3.64l0.03,0.58l0.46,8.53l0.08,1.62l0.41,7.51l0.14,2.66l0.35,6.46l0.19,3.69l0.3,5.43l0.25,4.73l0.24,4.4
				c0,0,0.052,0.967,0.114,2.108"/>
			<path style="fill:none;stroke:#263238;stroke-linecap:round;stroke-linejoin:round;stroke-miterlimit:10;" d="M66.736,458.311
				c0.057,1.064,0.104,1.934,0.104,1.934l0.04,0.83h0.79h1.87h7.74h1.88h7.74h1.86h7.74h1.88h7.74h1.86h5.81l0.1-1.83l0.23-4.31
				l0.26-4.82l0.28-5.32l0.21-3.8l0.34-6.37l0.15-2.75c0,0,0.079-1.467,0.167-3.095"/>
			<path style="fill:none;stroke:#263238;stroke-linecap:round;stroke-linejoin:round;stroke-miterlimit:10;" d="M115.635,426.786
				c0.07-1.286,0.125-2.311,0.125-2.311l0.09-1.72l0.45-8.44l0.04-0.68c0,0,0.12-2.241,0.236-4.408"/>
			<path style="fill:none;stroke:#263238;stroke-linecap:round;stroke-linejoin:round;stroke-miterlimit:10;" d="M116.674,407.393
				c0.066-1.235,0.116-2.158,0.116-2.158"/>
			<g>
				<g>
					
						<line style="fill:none;stroke:#263238;stroke-linecap:round;stroke-linejoin:round;stroke-miterlimit:10;" x1="67.67" y1="461.075" x2="66.84" y2="460.245"/>
					<polyline style="fill:none;stroke:#263238;stroke-linecap:round;stroke-linejoin:round;stroke-miterlimit:10;" points="
						77.28,461.075 73.41,457.205 68.61,452.405 66.29,450.085 					"/>
					<polyline style="fill:none;stroke:#263238;stroke-linecap:round;stroke-linejoin:round;stroke-miterlimit:10;" points="
						86.9,461.075 83.03,457.205 78.22,452.395 73.42,447.595 68.61,442.785 65.74,439.925 					"/>
					<path style="fill:none;stroke:#263238;stroke-linecap:round;stroke-linejoin:round;stroke-miterlimit:10;" d="M96.5,461.075
						l-3.87-3.87l-4.8-4.8c0,0-0.548-0.548-1.273-1.273"/>
					<path style="fill:none;stroke:#263238;stroke-linecap:round;stroke-linejoin:round;stroke-miterlimit:10;" d="M85.172,449.746
						c-1.112-1.112-2.152-2.152-2.152-2.152l-4.8-4.8l-4.81-4.81l-4.81-4.81c0,0-0.563-0.563-1.23-1.23"/>
					<polyline style="fill:none;stroke:#263238;stroke-linecap:round;stroke-linejoin:round;stroke-miterlimit:10;" points="
						106.12,461.075 102.25,457.205 97.44,452.395 92.64,447.595 87.83,442.785 83.03,437.985 78.22,433.175 73.41,428.365 
						68.61,423.565 64.65,419.605 					"/>
					<path style="fill:none;stroke:#263238;stroke-linecap:round;stroke-linejoin:round;stroke-miterlimit:10;" d="M113.89,459.245
						l-2.04-2.04l-4.8-4.8c0,0-0.607-0.607-1.389-1.389"/>
					<path style="fill:none;stroke:#263238;stroke-linecap:round;stroke-linejoin:round;stroke-miterlimit:10;" d="M103.682,449.037
						c-0.808-0.808-1.442-1.442-1.442-1.442l-4.8-4.8l-4.81-4.81l-4.8-4.81l-4.81-4.8l-4.8-4.81c0,0-1.087-1.084-2.227-2.222"/>
					<path style="fill:none;stroke:#263238;stroke-linecap:round;stroke-linejoin:round;stroke-miterlimit:10;" d="M73.41,418.765
						l-4.81-4.81c0,0-1.345-1.348-2.562-2.568"/>
					<polyline style="fill:none;stroke:#263238;stroke-linecap:round;stroke-linejoin:round;stroke-miterlimit:10;" points="
						69.5,405.235 73.41,409.145 78.22,413.955 83.02,418.755 87.83,423.565 92.64,428.375 97.44,433.175 102.25,437.985 
						107.05,442.785 111.86,447.595 114.38,450.115 					"/>
					<polyline style="fill:none;stroke:#263238;stroke-linecap:round;stroke-linejoin:round;stroke-miterlimit:10;" points="
						79.11,405.235 83.03,409.155 87.83,413.955 92.64,418.765 97.44,423.565 102.25,428.375 107.06,433.185 111.86,437.985 
						114.87,440.995 					"/>
					<polyline style="fill:none;stroke:#263238;stroke-linecap:round;stroke-linejoin:round;stroke-miterlimit:10;" points="
						88.72,405.235 92.63,409.145 97.44,413.955 102.25,418.765 107.05,423.565 111.86,428.375 115.36,431.875 					"/>
					<polyline style="fill:none;stroke:#263238;stroke-linecap:round;stroke-linejoin:round;stroke-miterlimit:10;" points="
						98.33,405.235 102.25,409.155 107.05,413.955 111.86,418.765 115.85,422.755 					"/>
					<polyline style="fill:none;stroke:#263238;stroke-linecap:round;stroke-linejoin:round;stroke-miterlimit:10;" points="
						107.94,405.235 111.86,409.155 116.34,413.635 					"/>
				</g>
				<g>
					<polyline style="fill:none;stroke:#263238;stroke-linecap:round;stroke-linejoin:round;stroke-miterlimit:10;" points="
						114.12,454.935 111.85,457.205 107.98,461.075 					"/>
					<polyline style="fill:none;stroke:#263238;stroke-linecap:round;stroke-linejoin:round;stroke-miterlimit:10;" points="
						114.66,444.795 111.86,447.595 107.05,452.405 102.25,457.205 98.38,461.075 					"/>
					<polyline style="fill:none;stroke:#263238;stroke-linecap:round;stroke-linejoin:round;stroke-miterlimit:10;" points="
						115.21,434.625 111.86,437.985 107.05,442.785 102.24,447.595 97.44,452.395 92.63,457.205 88.76,461.075 					"/>
					<path style="fill:none;stroke:#263238;stroke-linecap:round;stroke-linejoin:round;stroke-miterlimit:10;" d="M115.76,424.475
						l-3.9,3.9l-4.8,4.81l-4.81,4.8c0,0-0.274,0.274-0.69,0.69"/>
					<path style="fill:none;stroke:#263238;stroke-linecap:round;stroke-linejoin:round;stroke-miterlimit:10;" d="M99.12,441.115
						c-0.918,0.918-1.68,1.68-1.68,1.68l-4.8,4.8l-4.81,4.81l-4.8,4.8c0,0-0.951,0.951-1.91,1.91"/>
					<polyline style="fill:none;stroke:#263238;stroke-linecap:round;stroke-linejoin:round;stroke-miterlimit:10;" points="
						116.3,414.315 111.86,418.765 107.05,423.565 102.25,428.375 97.44,433.175 92.63,437.985 87.83,442.785 83.02,447.595 
						78.22,452.395 73.41,457.205 69.54,461.075 					"/>
					<path style="fill:none;stroke:#263238;stroke-linecap:round;stroke-linejoin:round;stroke-miterlimit:10;" d="M66.53,454.485
						l2.08-2.08l4.81-4.81l4.8-4.8l4.81-4.81c0,0,0.648-0.649,1.467-1.47"/>
					<path style="fill:none;stroke:#263238;stroke-linecap:round;stroke-linejoin:round;stroke-miterlimit:10;" d="M86.605,434.402
						c0.701-0.703,1.225-1.227,1.225-1.227l4.81-4.8l4.8-4.81l4.81-4.8l4.8-4.81l4.81-4.8c0,0,0.949-0.949,1.913-1.913"/>
					<polyline style="fill:none;stroke:#263238;stroke-linecap:round;stroke-linejoin:round;stroke-miterlimit:10;" points="
						66.04,445.355 68.61,442.785 73.41,437.985 78.22,433.175 83.02,428.375 87.83,423.565 92.64,418.765 97.44,413.955 
						102.25,409.155 106.16,405.235 					"/>
					<path style="fill:none;stroke:#263238;stroke-linecap:round;stroke-linejoin:round;stroke-miterlimit:10;" d="M65.55,436.235
						l3.05-3.06l4.81-4.81c0,0,0.83-0.828,1.8-1.796"/>
					<path style="fill:none;stroke:#263238;stroke-linecap:round;stroke-linejoin:round;stroke-miterlimit:10;" d="M76.531,425.251
						c0.922-0.92,1.689-1.686,1.689-1.686l4.8-4.81l4.81-4.8l4.8-4.81c0,0,0.697-0.695,1.503-1.499"/>
					<path style="fill:none;stroke:#263238;stroke-linecap:round;stroke-linejoin:round;stroke-miterlimit:10;" d="M65.06,427.115
						l3.55-3.55l4.8-4.8l4.81-4.81l4.81-4.8c0,0,1.259-1.262,2.348-2.354"/>
					<polyline style="fill:none;stroke:#263238;stroke-linecap:round;stroke-linejoin:round;stroke-miterlimit:10;" points="
						64.57,417.985 68.6,413.955 73.41,409.145 77.33,405.235 					"/>
					
						<line style="fill:none;stroke:#263238;stroke-linecap:round;stroke-linejoin:round;stroke-miterlimit:10;" x1="67.72" y1="405.235" x2="64.08" y2="408.875"/>
				</g>
			</g>
			<path style="fill:none;stroke:#263238;stroke-linecap:round;stroke-linejoin:round;stroke-miterlimit:10;" d="M78.725,399.106
				c11.604,0,26.325,0,34.286,0"/>
			<path style="fill:none;stroke:#263238;stroke-linecap:round;stroke-linejoin:round;stroke-miterlimit:10;" d="M114.99,399.106
				c2.362,0,3.762,0,3.762,0v6.129c0,0-5.587,0-13.258,0"/>
			<path style="fill:none;stroke:#263238;stroke-linecap:round;stroke-linejoin:round;stroke-miterlimit:10;" d="M102.198,405.235
				c-8.648,0-19.083,0-27.165,0"/>
			<path style="fill:none;stroke:#263238;stroke-linecap:round;stroke-linejoin:round;stroke-miterlimit:10;" d="M73.846,405.235
				c-6.98,0-11.931,0-11.931,0s0-1.226,0-2.581"/>
			<path style="fill:none;stroke:#263238;stroke-linecap:round;stroke-linejoin:round;stroke-miterlimit:10;" d="M61.915,402.127
				c0-1.518,0-3.021,0-3.021s5.712,0,13.514,0"/>
		</g>
		<g>
			
				<line style="fill:none;stroke:#263238;stroke-linecap:round;stroke-linejoin:round;stroke-miterlimit:10;" x1="98.425" y1="351.607" x2="98.425" y2="393.665"/>
			
				<line style="fill:none;stroke:#263238;stroke-linecap:round;stroke-linejoin:round;stroke-miterlimit:10;" x1="98.425" y1="337.926" x2="98.425" y2="346.886"/>
			<polyline style="fill:none;stroke:#263238;stroke-linecap:round;stroke-linejoin:round;stroke-miterlimit:10;" points="
				289.345,460.91 289.345,315.757 98.425,315.757 98.425,332.859 			"/>
			<polyline style="fill:none;stroke:#263238;stroke-linecap:round;stroke-linejoin:round;stroke-miterlimit:10;" points="
				263.706,324.275 278.976,324.275 278.976,453.768 			"/>
			<polyline style="fill:none;stroke:#263238;stroke-linecap:round;stroke-linejoin:round;stroke-miterlimit:10;" points="
				108.794,393.665 108.794,324.275 254.838,324.275 			"/>
			
				<line style="fill:none;stroke:#263238;stroke-linecap:round;stroke-linejoin:round;stroke-miterlimit:10;" x1="116.11" y1="307.69" x2="120.962" y2="307.69"/>
			<polyline style="fill:none;stroke:#263238;stroke-linecap:round;stroke-linejoin:round;stroke-miterlimit:10;" points="
				127.924,307.69 293.72,307.69 293.72,315.7 94.05,315.7 94.05,307.69 113.017,307.69 			"/>
		</g>
		<g>
			
				<line style="fill:none;stroke:#263238;stroke-linecap:round;stroke-linejoin:round;stroke-miterlimit:10;" x1="333.237" y1="303.731" x2="330.853" y2="319.195"/>
			<path style="fill:none;stroke:#263238;stroke-linecap:round;stroke-linejoin:round;stroke-miterlimit:10;" d="M318.626,240.285
				h11.53c6.761,0,11.931,6.028,10.901,12.71l-6.516,42.274"/>
			
				<line style="fill:none;stroke:#263238;stroke-linecap:round;stroke-linejoin:round;stroke-miterlimit:10;" x1="306.904" y1="240.285" x2="315.327" y2="240.285"/>
			<path style="fill:none;stroke:#263238;stroke-linecap:round;stroke-linejoin:round;stroke-miterlimit:10;" d="M258.379,298.239
				l7.492-48.604c0.829-5.379,5.458-9.35,10.901-9.35h24.124"/>
			
				<line style="fill:none;stroke:#263238;stroke-linecap:round;stroke-linejoin:round;stroke-miterlimit:10;" x1="250.02" y1="352.469" x2="253.772" y2="328.124"/>
			<path style="fill:none;stroke:#263238;stroke-linecap:round;stroke-linejoin:round;stroke-miterlimit:10;" d="M292.668,383.533
				h11.473c5.691,0,10.856-2.25,14.655-5.909"/>
			
				<line style="fill:none;stroke:#263238;stroke-linecap:round;stroke-linejoin:round;stroke-miterlimit:10;" x1="229.449" y1="383.533" x2="269.423" y2="383.533"/>
			<path style="fill:none;stroke:#263238;stroke-linecap:round;stroke-linejoin:round;stroke-miterlimit:10;" d="M212.928,379.924
				c3.372,2.278,7.437,3.608,11.813,3.608"/>
			<path style="fill:none;stroke:#263238;stroke-linecap:round;stroke-linejoin:round;stroke-miterlimit:10;" d="M275.623,352.469
				h-64.134c-4.35,0-7.876,3.526-7.876,7.876v2.059c0,4.954,1.705,9.51,4.56,13.112"/>
			<path style="fill:none;stroke:#263238;stroke-linecap:round;stroke-linejoin:round;stroke-miterlimit:10;" d="M324.691,357.38
				c-1.171-2.88-3.998-4.911-7.299-4.911h-11.43"/>
			<polyline style="fill:none;stroke:#263238;stroke-linecap:round;stroke-linejoin:round;stroke-miterlimit:10;" points="
				275.762,389.34 248.316,389.34 242.552,383.533 			"/>
			<path style="fill:none;stroke:#263238;stroke-linecap:round;stroke-linejoin:round;stroke-miterlimit:10;" d="M270.86,410.392
				h-12.839c-1.003,0-1.816-0.813-1.816-1.816V389.34h16.47v19.236C272.676,409.579,271.863,410.392,270.86,410.392z"/>
			
				<rect x="259.289" y="410.392" style="fill:none;stroke:#263238;stroke-linecap:round;stroke-linejoin:round;stroke-miterlimit:10;" width="10.304" height="23.722"/>
			<path style="fill:none;stroke:#263238;stroke-linecap:round;stroke-linejoin:round;stroke-miterlimit:10;" d="M217.224,448.716
				c17.164-11.429,42.065-14.603,42.065-14.603"/>
			<path style="fill:none;stroke:#263238;stroke-linecap:round;stroke-linejoin:round;stroke-miterlimit:10;" d="M275.722,445.305
				c-17.37-2.546-34.661,1.296-50.96,5.504"/>
			<path style="fill:none;stroke:#263238;stroke-linecap:round;stroke-linejoin:round;stroke-miterlimit:10;" d="M304.12,450.809
				c-3.962-1.016-7.957-1.909-11.963-2.732"/>
			<path style="fill:none;stroke:#263238;stroke-linecap:round;stroke-linejoin:round;stroke-miterlimit:10;" d="M292.668,439.694
				c6.633,2.272,13.137,5.13,18.99,9.023"/>
			<path style="fill:none;stroke:#263238;stroke-linecap:round;stroke-linejoin:round;stroke-miterlimit:10;" d="M269.592,434.114
				c2.169,0.293,4.325,0.686,6.47,1.119"/>
			
				<circle style="fill:none;stroke:#263238;stroke-linecap:round;stroke-linejoin:round;stroke-miterlimit:10;" cx="219.241" cy="455.177" r="6.461"/>
			<path style="fill:none;stroke:#263238;stroke-linecap:round;stroke-linejoin:round;stroke-miterlimit:10;" d="M316.962,455.177
				c0,3.568-2.892,6.461-6.461,6.461c-3.568,0-6.461-2.892-6.461-6.461c0-3.568,2.893-6.461,6.461-6.461
				C314.07,448.716,316.962,451.609,316.962,455.177z"/>
			<path style="fill:none;stroke:#263238;stroke-linecap:round;stroke-linejoin:round;stroke-miterlimit:10;" d="M302.669,370.353
				l5.069-34.327c0.486-3.29,3.085-5.863,6.38-6.316l23.562-3.238c1.81-0.249,3.158-1.795,3.158-3.622l0,0
				c0-2.019-1.637-3.656-3.656-3.656h-2.971l-23.342,3.595c-5.716,0.88-10.164,5.429-10.917,11.163l-4.885,37.238
				c-0.181,1.377,0.891,2.599,2.28,2.599l0,0"/>
			<path style="fill:none;stroke:#263238;stroke-linecap:round;stroke-linejoin:round;stroke-miterlimit:10;" d="M337.68,326.473
				l-6.128,32.605l0,0c1.692,0,3.064,1.372,3.064,3.064v6.227c0,4.294-3.481,7.774-7.774,7.774h-28.653"/>
			<polyline style="fill:none;stroke:#263238;stroke-linecap:round;stroke-linejoin:round;stroke-miterlimit:10;" points="
				333.619,327.03 327.245,358.383 310.502,358.383 			"/>
			
				<line style="fill:none;stroke:#263238;stroke-linecap:round;stroke-linejoin:round;stroke-miterlimit:10;" x1="211.574" y1="333.953" x2="209.858" y2="347.037"/>
			<path style="fill:none;stroke:#263238;stroke-linecap:round;stroke-linejoin:round;stroke-miterlimit:10;" d="M217.54,348.344
				l1.819-12.318c0.486-3.29,3.085-5.863,6.38-6.316l23.562-3.238"/>
		</g>
		<path style="fill:none;stroke:#263238;stroke-linecap:round;stroke-linejoin:round;stroke-miterlimit:10;" d="M164.587,258.694
			l9.182,42.816c0.394,1.839,2.02,3.153,3.9,3.153h68.253c1.733,0,3.019-1.606,2.639-3.297l-9.606-42.828
			c-0.408-1.822-2.026-3.116-3.892-3.116h-67.832C165.509,255.422,164.225,257.01,164.587,258.694z"/>
		<polygon style="fill:none;stroke:#263238;stroke-linecap:round;stroke-linejoin:round;stroke-miterlimit:10;" points="
			203.961,275.16 198.678,275.16 197.184,279.888 200.972,284.617 206.254,284.617 207.748,279.888 		"/>
		<path style="fill:none;stroke:#263238;stroke-linecap:round;stroke-linejoin:round;stroke-miterlimit:10;" d="M251.896,301.75
			h27.08v1.469c0,1.465-1.188,2.653-2.653,2.653h-0.7"/>
	</g>
</g>
<g id="Plant">
	<g>
		<g>
			<path style="fill:none;stroke:#263238;stroke-linecap:round;stroke-linejoin:round;stroke-miterlimit:10;" d="M399.712,407.632
				c0,0,15.053,1.188,15.681,12.294C415.393,419.926,400.15,426.944,399.712,407.632z"/>
			<path style="fill:none;stroke:#263238;stroke-linecap:round;stroke-linejoin:round;stroke-miterlimit:10;" d="M429.49,410.389
				c0,0,8.41-11.369,21.997-5.539C451.487,404.85,443.189,418.596,429.49,410.389z"/>
			<path style="fill:none;stroke:#263238;stroke-linecap:round;stroke-linejoin:round;stroke-miterlimit:10;" d="M450.336,374.493
				c0,0,2.418,21.874-17.492,15.85C432.844,390.343,439.166,374.263,450.336,374.493z"/>
			<path style="fill:none;stroke:#263238;stroke-linecap:round;stroke-linejoin:round;stroke-miterlimit:10;" d="M425.89,362.317
				c0,0,15.746,8.491,4.168,21.376C430.058,383.693,419.015,374.49,425.89,362.317z"/>
			<path style="fill:none;stroke:#263238;stroke-linecap:round;stroke-linejoin:round;stroke-miterlimit:10;" d="M406.515,381.862
				c0,0,17.12-1.727,17.12,14.121C423.636,395.983,406.515,396.658,406.515,381.862z"/>
			<path style="fill:none;stroke:#263238;stroke-linecap:round;stroke-linejoin:round;stroke-miterlimit:10;" d="M419.346,428.873
				c-0.249-5.316-0.247-12.157,3-19.388c7.492-16.683,10.026-30.731,6.111-40.634"/>
			<path style="fill:none;stroke:#263238;stroke-linecap:round;stroke-linejoin:round;stroke-miterlimit:10;" d="M412.14,386.123
				c0,0,10.262,4.077,13.75,14.648"/>
			<path style="fill:none;stroke:#263238;stroke-linecap:round;stroke-linejoin:round;stroke-miterlimit:10;" d="M444.923,383.244
				c0,0-5.93,8.078-15.977,7.206"/>
			<path style="fill:none;stroke:#263238;stroke-linecap:round;stroke-linejoin:round;stroke-miterlimit:10;" d="M444.923,407.174
				c0,0-16.424,4.732-22.952,3.183"/>
			<path style="fill:none;stroke:#263238;stroke-linecap:round;stroke-linejoin:round;stroke-miterlimit:10;" d="M404.621,412.633
				c0,0,7.341,8.058,14.725,7.932"/>
		</g>
		<path style="fill:none;stroke:#263238;stroke-linecap:round;stroke-linejoin:round;stroke-miterlimit:10;" d="M438.873,428.873
			h-35.691c-0.48,0-0.869,0.389-0.869,0.869v2.706c0,0.48,0.389,0.869,0.869,0.869h1.042l3.18,27.756h27.246l3.181-27.756h1.042
			c0.48,0,0.869-0.389,0.869-0.869v-2.706C439.742,429.262,439.353,428.873,438.873,428.873z"/>
		
			<line style="fill:none;stroke:#263238;stroke-linecap:round;stroke-linejoin:round;stroke-miterlimit:10;" x1="406.515" y1="433.317" x2="427.274" y2="433.317"/>
		
			<line style="fill:none;stroke:#263238;stroke-linecap:round;stroke-linejoin:round;stroke-miterlimit:10;" x1="431.189" y1="433.317" x2="434.308" y2="433.317"/>
	</g>
</g>
<g id="Interface">
	<g>
		<path style="fill:#FFFFFF;stroke:#263238;stroke-linecap:round;stroke-linejoin:round;stroke-miterlimit:10;" d="M230.19,87.26
			v277.92c0,1.331-1.079,2.41-2.41,2.41H63.15c-1.331,0-2.41-1.079-2.41-2.41V87.26c0-1.331,1.079-2.41,2.41-2.41h52.049
			c1.409,0,2.551,1.142,2.551,2.551v5.837c0,1.409,1.142,2.551,2.551,2.551h50.337c1.409,0,2.551-1.142,2.551-2.551v-5.837
			c0-1.409,1.142-2.551,2.551-2.551h52.039C229.111,84.85,230.19,85.929,230.19,87.26z"/>
		
			<rect x="60.74" y="112.27" style="fill:#BFBFBF;stroke:#263238;stroke-linecap:round;stroke-linejoin:round;stroke-miterlimit:10;" width="169.452" height="25.528"/>
		<g>
			
				<line style="fill:none;stroke:#263238;stroke-width:3;stroke-linecap:round;stroke-linejoin:round;stroke-miterlimit:10;" x1="82.897" y1="188.952" x2="151.872" y2="188.952"/>
			
				<line style="fill:none;stroke:#263238;stroke-width:3;stroke-linecap:round;stroke-linejoin:round;stroke-miterlimit:10;" x1="99.926" y1="200.924" x2="208.034" y2="200.924"/>
			
				<line style="fill:none;stroke:#263238;stroke-width:3;stroke-linecap:round;stroke-linejoin:round;stroke-miterlimit:10;" x1="82.897" y1="209.861" x2="208.034" y2="209.861"/>
			
				<line style="fill:none;stroke:#263238;stroke-width:3;stroke-linecap:round;stroke-linejoin:round;stroke-miterlimit:10;" x1="82.897" y1="218.798" x2="208.034" y2="218.798"/>
			
				<line style="fill:none;stroke:#263238;stroke-width:3;stroke-linecap:round;stroke-linejoin:round;stroke-miterlimit:10;" x1="82.897" y1="227.734" x2="208.034" y2="227.734"/>
			
				<line style="fill:none;stroke:#263238;stroke-width:3;stroke-linecap:round;stroke-linejoin:round;stroke-miterlimit:10;" x1="82.897" y1="236.671" x2="208.034" y2="236.671"/>
			
				<line style="fill:none;stroke:#263238;stroke-width:3;stroke-linecap:round;stroke-linejoin:round;stroke-miterlimit:10;" x1="82.897" y1="245.608" x2="208.034" y2="245.608"/>
			
				<line style="fill:none;stroke:#263238;stroke-width:3;stroke-linecap:round;stroke-linejoin:round;stroke-miterlimit:10;" x1="82.897" y1="254.545" x2="140.997" y2="254.545"/>
		</g>
		<g>
			<g>
				
					<line style="fill:none;stroke:#263238;stroke-linecap:round;stroke-linejoin:round;stroke-miterlimit:10;" x1="211.118" y1="121.894" x2="217.508" y2="121.894"/>
				
					<line style="fill:none;stroke:#263238;stroke-linecap:round;stroke-linejoin:round;stroke-miterlimit:10;" x1="211.118" y1="124.835" x2="217.508" y2="124.835"/>
				
					<line style="fill:none;stroke:#263238;stroke-linecap:round;stroke-linejoin:round;stroke-miterlimit:10;" x1="211.118" y1="127.777" x2="217.508" y2="127.777"/>
			</g>
			<g>
				
					<line style="fill:none;stroke:#263238;stroke-linecap:round;stroke-linejoin:round;stroke-miterlimit:10;" x1="78.497" y1="124.835" x2="73.105" y2="124.835"/>
				<polyline style="fill:none;stroke:#263238;stroke-linecap:round;stroke-linejoin:round;stroke-miterlimit:10;" points="
					75.582,128.105 72.312,124.835 75.582,121.565 				"/>
			</g>
			<g>
				
					<rect x="193.648" y="121.894" style="fill:none;stroke:#263238;stroke-linecap:round;stroke-linejoin:round;stroke-miterlimit:10;" width="8.05" height="5.883"/>
				<polyline style="fill:none;stroke:#263238;stroke-linecap:round;stroke-linejoin:round;stroke-miterlimit:10;" points="
					193.648,121.894 197.673,124.835 201.698,121.894 				"/>
			</g>
			<g>
				<polygon style="fill:none;stroke:#263238;stroke-linecap:round;stroke-linejoin:round;stroke-miterlimit:10;" points="
					183.252,128.913 177.834,128.913 177.112,121.893 183.975,121.893 				"/>
				<polyline style="fill:none;stroke:#263238;stroke-linecap:round;stroke-linejoin:round;stroke-miterlimit:10;" points="
					179.189,121.893 179.189,120.758 181.898,120.758 181.898,121.893 				"/>
			</g>
		</g>
		<path style="fill:#92E3A9;stroke:#263238;stroke-linecap:round;stroke-linejoin:round;stroke-miterlimit:10;" d="M230.191,347.305
			v17.876c0,1.326-1.073,2.406-2.406,2.406H63.153c-1.333,0-2.413-1.08-2.413-2.406v-17.876H230.191z"/>
		<g>
			
				<line style="fill:none;stroke:#263238;stroke-width:3;stroke-linecap:round;stroke-linejoin:round;stroke-miterlimit:10;" x1="103.745" y1="159.311" x2="172.72" y2="159.311"/>
			<g>
				
					<ellipse transform="matrix(0.9871 -0.1602 0.1602 0.9871 -24.3608 16.4234)" style="fill:#92E3A9;stroke:#263238;stroke-linecap:round;stroke-linejoin:round;stroke-miterlimit:10;" cx="89.687" cy="159.311" rx="8.515" ry="8.515"/>
				<path style="fill:#263238;" d="M93.171,164.627c-0.516,0-2.021-1.135-1.505-2.064c0.516-0.929,1.505-2.477,1.505-2.477
					c0.619-0.826,0.722-2.787,0.722-2.787c0.206-1.445-0.619-3.922-4.207-3.922s-4.413,2.477-4.207,3.922
					c0,0,0.103,1.961,0.722,2.787c0,0,0.989,1.548,1.505,2.477c0.516,0.929-0.989,2.064-1.505,2.064
					c-0.516,0-2.445,0.791-2.445,0.791s3.427,2.409,5.929,2.409s5.929-2.409,5.929-2.409S93.687,164.627,93.171,164.627z"/>
			</g>
		</g>
		
			<line style="fill:none;stroke:#263238;stroke-linecap:round;stroke-linejoin:round;stroke-miterlimit:10;" x1="60.74" y1="272.195" x2="230.191" y2="272.195"/>
		
			<rect x="60.74" y="318.71" style="fill:#BFBFBF;stroke:#263238;stroke-linecap:round;stroke-linejoin:round;stroke-miterlimit:10;" width="169.452" height="28.595"/>
		<g>
			<path style="fill:#92E3A9;stroke:#263238;stroke-linecap:round;stroke-linejoin:round;stroke-miterlimit:10;" d="
				M206.999,306.757h-13.951c-2.731,0-4.945-2.214-4.945-4.945v-13.951c0-2.731,2.214-4.945,4.945-4.945h13.951
				c2.731,0,4.945,2.214,4.945,4.945v13.951C211.944,304.543,209.73,306.757,206.999,306.757z"/>
			<path style="fill:none;stroke:#263238;stroke-width:1.5;stroke-linecap:round;stroke-linejoin:round;stroke-miterlimit:10;" d="
				M196.344,293.005l3.351-3.351c1.451-1.451,3.803-1.451,5.255,0l0,0c1.451,1.451,1.451,3.803,0,5.254l-5.473,5.473
				c-0.967,0.967-2.536,0.967-3.503,0l0,0c-0.967-0.967-0.967-2.536,0-3.503l5.2-5.2c0.453-0.453,1.189-0.453,1.642,0l0,0
				c0.454,0.453,0.454,1.189,0,1.642l-2.791,2.791"/>
		</g>
		<g>
			
				<line style="fill:none;stroke:#263238;stroke-width:3;stroke-linecap:round;stroke-linejoin:round;stroke-miterlimit:10;" x1="82.897" y1="290.369" x2="176.728" y2="290.369"/>
			
				<line style="fill:none;stroke:#263238;stroke-width:3;stroke-linecap:round;stroke-linejoin:round;stroke-miterlimit:10;" x1="82.897" y1="299.305" x2="161.075" y2="299.305"/>
		</g>
		<g>
			<path style="fill:none;stroke:#263238;stroke-linecap:round;stroke-linejoin:round;stroke-miterlimit:10;" d="M103.543,340.085
				H85.48c-1.834,0-3.321-1.487-3.321-3.321v-7.66c0-1.834,1.487-3.321,3.321-3.321h18.062c1.834,0,3.321,1.487,3.321,3.321v7.66
				C106.864,338.598,105.377,340.085,103.543,340.085z"/>
			<g>
				<path style="fill:none;stroke:#263238;stroke-linecap:round;stroke-linejoin:round;stroke-miterlimit:10;" d="M98.225,335.841
					v-1.023c0-1.397-1.132-2.529-2.529-2.529h-4.18"/>
				<polyline style="fill:none;stroke:#263238;stroke-linecap:round;stroke-linejoin:round;stroke-miterlimit:10;" points="
					93.061,334.551 90.798,332.289 93.061,330.026 				"/>
			</g>
		</g>
		<g>
			<path style="fill:none;stroke:#263238;stroke-linecap:round;stroke-linejoin:round;stroke-miterlimit:10;" d="M155.112,340.085
				h-18.063c-1.834,0-3.321-1.487-3.321-3.321v-7.66c0-1.834,1.487-3.321,3.321-3.321h18.063c1.834,0,3.321,1.487,3.321,3.321v7.66
				C158.433,338.598,156.946,340.085,155.112,340.085z"/>
			<g>
				<path style="fill:none;stroke:#263238;stroke-linecap:round;stroke-linejoin:round;stroke-miterlimit:10;" d="M150.968,335.841
					v-1.023c0-1.397-1.132-2.529-2.529-2.529h-4.18"/>
				<polyline style="fill:none;stroke:#263238;stroke-linecap:round;stroke-linejoin:round;stroke-miterlimit:10;" points="
					145.803,334.551 143.541,332.289 145.803,330.026 				"/>
				<polyline style="fill:none;stroke:#263238;stroke-linecap:round;stroke-linejoin:round;stroke-miterlimit:10;" points="
					143.455,334.551 141.193,332.289 143.455,330.026 				"/>
			</g>
		</g>
		<g>
			<path style="fill:none;stroke:#263238;stroke-linecap:round;stroke-linejoin:round;stroke-miterlimit:10;" d="M189.792,340.085
				h18.062c1.834,0,3.321-1.487,3.321-3.321v-7.66c0-1.834-1.487-3.321-3.321-3.321h-18.062c-1.834,0-3.321,1.487-3.321,3.321v7.66
				C186.471,338.598,187.958,340.085,189.792,340.085z"/>
			<g>
				<path style="fill:none;stroke:#263238;stroke-linecap:round;stroke-linejoin:round;stroke-miterlimit:10;" d="M195.11,335.841
					v-1.023c0-1.397,1.132-2.529,2.529-2.529h4.18"/>
				<polyline style="fill:none;stroke:#263238;stroke-linecap:round;stroke-linejoin:round;stroke-miterlimit:10;" points="
					200.275,334.551 202.537,332.289 200.275,330.026 				"/>
			</g>
		</g>
		<path style="fill:#92E3A9;stroke:#263238;stroke-linecap:round;stroke-linejoin:round;stroke-miterlimit:10;" d="M230.19,87.25
			v25.02H60.74V87.26c0-1.331,1.079-2.41,2.41-2.41h52.049c1.409,0,2.551,1.142,2.551,2.551v5.837c0,1.409,1.142,2.551,2.551,2.551
			h50.337c1.409,0,2.551-1.142,2.551-2.551v-5.837c0-1.409,1.142-2.551,2.551-2.551h52.049
			C229.115,84.85,230.19,85.924,230.19,87.25z"/>
	</g>
</g>
<g id="Line">
	<g>
		<g>
			
				<line style="fill:none;stroke:#263238;stroke-linecap:round;stroke-linejoin:round;" x1="280.728" y1="196.925" x2="280.728" y2="199.425"/>
			
				<line style="fill:none;stroke:#263238;stroke-linecap:round;stroke-linejoin:round;stroke-dasharray:4.8602,4.8602;" x1="280.728" y1="204.285" x2="280.728" y2="289.339"/>
			<polyline style="fill:none;stroke:#263238;stroke-linecap:round;stroke-linejoin:round;" points="280.728,291.769 
				280.728,294.269 278.228,294.269 			"/>
			
				<line style="fill:none;stroke:#263238;stroke-linecap:round;stroke-linejoin:round;stroke-dasharray:4.7092,4.7092;" x1="273.518" y1="294.269" x2="219.363" y2="294.269"/>
			
				<line style="fill:none;stroke:#263238;stroke-linecap:round;stroke-linejoin:round;" x1="217.008" y1="294.269" x2="214.508" y2="294.269"/>
		</g>
	</g>
</g>
<g id="Character">
	<g>
		<path style="fill:#757575;stroke:#263238;stroke-linecap:round;stroke-linejoin:round;stroke-miterlimit:10;" d="M399.385,441.835
			c0,0,0.264,7.671-2.374,10.308c-2.637,2.637-1.582,9.494-1.582,9.494h23.868l0.659-7.195L416,440.074L399.385,441.835z"/>
		<path style="fill:#757575;stroke:#263238;stroke-linecap:round;stroke-linejoin:round;stroke-miterlimit:10;" d="M340.835,440.074
			c0,0,2.637,6.94-7.121,10.296c-9.758,3.355-15.561,3.355-16.352,8.894v2.374h20.849l6.579-2.11l2.11,2.11h11.604l1.319-4.22
			l-1.846-13.822L340.835,440.074z"/>
		<path style="fill:#263238;" d="M342.549,250.765l-4.938,27.312c0,0-2.858,40.758-2.521,57.764
			c0.338,17.005,6.272,93.929,5.876,97.006c-0.396,3.077-3.546,6.429-3.355,6.929c0.19,0.499,1.195,4.426,1.195,4.426l19.614,2.78
			l2.722-5.147c0,0-3.466-4.412-2.722-5.755c0.744-1.343,2.327-6.38,2.722-8.214c0.396-1.833,4.233-106.161,4.233-106.161
			s27.02,103.247,27.02,107.15c0,3.903,4.352,8.296,4.352,8.296l-1.527,7.871l3.505,3.819c0,0,10.154-4.61,20.176,0l-0.527-7.796
			l-3.033-3.894l0.791-5.455c0,0-4.073-42.301-8.564-62.356c-4.491-20.055-7.374-86.989-8.612-91.818
			c-1.237-4.829-5.33-29.374-5.33-29.374L342.549,250.765z"/>
		<path style="fill:#92E3A9;stroke:#263238;stroke-linecap:round;stroke-linejoin:round;stroke-miterlimit:10;" d="M313.259,194.102
			h-65.064c-3.286,0-5.949-2.664-5.949-5.949v-75.634c0-3.286,2.664-5.949,5.949-5.949h65.064c3.286,0,5.949,2.664,5.949,5.949
			v75.634C319.209,191.438,316.545,194.102,313.259,194.102z"/>
		<g>
			<defs>
				<rect id="XMLID_1004_" x="259.077" y="125.777" width="38.374" height="54.933"/>
			</defs>
			<use xlink:href="#XMLID_1004_"  style="overflow:visible;fill:#FFFFFF;"/>
			<clipPath id="XMLID_00000034811238668944593880000000219995329314347918_">
				<use xlink:href="#XMLID_1004_"  style="overflow:visible;"/>
			</clipPath>
			
				<rect x="259.077" y="125.777" style="opacity:0.4;clip-path:url(#XMLID_00000034811238668944593880000000219995329314347918_);fill:#92E3A9;" width="38.374" height="54.933"/>
			
				<use xlink:href="#XMLID_1004_"  style="overflow:visible;fill:none;stroke:#263238;stroke-linecap:round;stroke-linejoin:round;stroke-miterlimit:10;"/>
		</g>
		
			<rect x="263.575" y="121.24" transform="matrix(0.9806 -0.1958 0.1958 0.9806 -23.6431 58.2418)" style="fill:#FFFFFF;stroke:#263238;stroke-linecap:round;stroke-linejoin:round;stroke-miterlimit:10;" width="38.374" height="54.933"/>
		<path style="fill:none;stroke:#263238;stroke-width:1.5;stroke-linecap:round;stroke-linejoin:round;stroke-miterlimit:10;" d="
			M261.382,124.699c0.556-1.351,1.886-2.301,3.437-2.301l0,0c2.052,0,3.715,1.663,3.715,3.715v7.741
			c0,1.368-1.109,2.477-2.477,2.477l0,0c-1.368,0-2.477-1.109-2.477-2.477v-7.353c0-0.641,0.52-1.161,1.161-1.161l0,0
			c0.641,0,1.161,0.52,1.161,1.161v3.948"/>
		<g>
			<defs>
				<path id="XMLID_1005_" d="M320.76,208.45c0.02,5.38-8.01,6.97-8.01,6.97c-14.64-13.43-17.94-29.93-25.06-32.55
					c-0.65-0.24-1.24-0.62-1.75-1.07c-2.14-1.9-3.18-5.09-3.18-5.09l9.47-1.89c0.45-2.5,1.58-5.63,2.55-6.99
					c0.69-0.97-0.31-3.24-1.48-5.78c-0.77-1.65,0.49-3.15,0.49-3.15s3.66,2.87,5.11,6.75c1.45,3.87-0.01,12.97,4.27,17.48
					c7.65,8.06,8.8,7.6,16.04,13.8C319.21,196.93,320.74,203.24,320.76,208.45z"/>
			</defs>
			<use xlink:href="#XMLID_1005_"  style="overflow:visible;fill:#FFFFFF;"/>
			<clipPath id="XMLID_00000106142910701155096410000000709099179523217060_">
				<use xlink:href="#XMLID_1005_"  style="overflow:visible;"/>
			</clipPath>
			<path style="opacity:0.4;clip-path:url(#XMLID_00000106142910701155096410000000709099179523217060_);fill:#92E3A9;" d="
				M285.94,181.8c-2.14-1.9-3.18-5.09-3.18-5.09l9.47-1.89c0,0-0.48,2.68,0,4.51C292.53,180.5,288.82,180.51,285.94,181.8z"/>
			
				<use xlink:href="#XMLID_1005_"  style="overflow:visible;fill:none;stroke:#263238;stroke-linecap:round;stroke-linejoin:round;stroke-miterlimit:10;"/>
		</g>
		<g>
			<defs>
				<path id="XMLID_1006_" d="M347.16,167.83v35.08c0,0-4.56,4.5-9.51,9.24c-5.29,5.07-11.02,10.41-12.11,10.84
					c-2.11,0.82-6.33-2.41-6.33-2.41c-2.37,1.58-4.75-1.78-4.75-1.78c-2.37,2.43-4.75-1.65-1.84-5.87c2.9-4.22,6.59-16,6.59-16
					c1.58-1.24,2.64,0,2.64,0S340.04,171.26,347.16,167.83z"/>
			</defs>
			<use xlink:href="#XMLID_1006_"  style="overflow:visible;fill:#92E3A9;"/>
			<clipPath id="XMLID_00000100369943709527121390000008491363393410829955_">
				<use xlink:href="#XMLID_1006_"  style="overflow:visible;"/>
			</clipPath>
			<path style="opacity:0.2;clip-path:url(#XMLID_00000100369943709527121390000008491363393410829955_);fill-opacity:0.7;" d="
				M347.16,182.84v20.07c0,0-4.56,4.5-9.51,9.24c-2.26-2.41-3.9-5.76-4.2-7.88c-0.59-4.18,4.35-1.16,4.35-1.16
				c-3.56-3.58,0.6-19.98,0.81-17.21c0.18,2.25,0.76,7.14,0.97,8.91C339.13,188.51,345.45,183.55,347.16,182.84z"/>
			
				<use xlink:href="#XMLID_1006_"  style="overflow:visible;fill:none;stroke:#263238;stroke-linecap:round;stroke-linejoin:round;stroke-miterlimit:10;"/>
		</g>
		<g>
			<defs>
				<path id="XMLID_1010_" d="M395.69,250.67c1.95,3.17-51.74,4.53-55.44,2c-0.49-0.33-0.85-0.72-1.1-1.13
					c-1.68-2.73,1.1-6.79,1.1-6.79s-0.47-55.83,6.91-76.92c0,0,9.05-1.13,21.45-0.95c4.79,0.07,10.09,0.34,15.57,0.95
					c3.96,0.44,8.86,1.26,13.69,2.16c8.07,1.52,15.96,3.3,19.09,4.01c0.9,0.21,1.41,0.33,1.41,0.33S393.74,247.51,395.69,250.67z"/>
			</defs>
			<use xlink:href="#XMLID_1010_"  style="overflow:visible;fill:#92E3A9;"/>
			<clipPath id="XMLID_00000145052709024691024030000003271496612520650880_">
				<use xlink:href="#XMLID_1010_"  style="overflow:visible;"/>
			</clipPath>
			<path style="opacity:0.2;clip-path:url(#XMLID_00000145052709024691024030000003271496612520650880_);fill-opacity:0.7;" d="
				M364.88,179.33c0,0-3.59-6.07,2.39-11.5c0.33-0.3,0.78-0.62,1.34-0.95c4.79,0.07,10.09,0.34,15.57,0.95
				c3.96,0.44,8.86,1.26,13.69,2.16l-21.49,11.36l-4.46-4.55L364.88,179.33z"/>
			<path style="opacity:0.2;clip-path:url(#XMLID_00000145052709024691024030000003271496612520650880_);fill-opacity:0.7;" d="
				M395.69,250.67c1.95,3.17-51.74,4.53-55.44,2c-0.49-0.33-0.85-0.72-1.1-1.13c10.66,1.94,36.97-0.5,44.15-3.39
				c8.5-3.42,13.45-18.93,10.74-17.35c-2.7,1.58-11.73,0.6-4.91-2.77c6.82-3.36,14.4-14.41,14.4-14.41s-4.8-13.87-3.22-16.69
				c1.15-2.07,2.63,1.76,3.34,3.97c-1.21-5.7,3.11-11.39,3.11-11.39l10.2-15.51c0.9,0.21,1.41,0.33,1.41,0.33
				S393.74,247.51,395.69,250.67z"/>
			
				<use xlink:href="#XMLID_1010_"  style="overflow:visible;fill:none;stroke:#263238;stroke-linecap:round;stroke-linejoin:round;stroke-miterlimit:10;"/>
		</g>
		<path style="fill:#FFFFFF;stroke:#263238;stroke-linecap:round;stroke-linejoin:round;stroke-miterlimit:10;" d="M392.689,168.755
			c0,0-19.969,8.004-26.527-0.357c0,0,3.586,0.357,5.754-2.753c0.842-1.189,1.473-2.891,1.61-5.324c0.101-1.482,0-3.229-0.338-5.296
			c-0.768-4.683,18.926-1.656,18.926-1.656S387.878,166.395,392.689,168.755z"/>
		<path style="fill:#263238;" d="M380.852,158.465c0,0-3.439,5.928-8.937,7.181c0.842-1.189,1.473-2.891,1.61-5.324
			C377.249,159.242,380.852,158.465,380.852,158.465z"/>
		<g>
			<path style="fill:#FFFFFF;stroke:#263238;stroke-linecap:round;stroke-linejoin:round;stroke-miterlimit:10;" d="M392.109,152.29
				c5.571-8.255,14.057-40.81-13.333-34.45c-13.621,3.163-11.854,21.007-11.854,21.007l-4.692,5.809l3.88,3.292l-0.164,3.874
				l1.325,0.469c0,0-1.165,9.407,0,10c2.123,1.081,16.053-0.617,16.053-4.004"/>
			<path style="fill:none;stroke:#263238;stroke-linecap:round;stroke-linejoin:round;stroke-miterlimit:10;" d="M367.271,152.29
				c0,0,3.917,0.508,6.893,0.116c0,0-1.497,3.059-5.336,2.04"/>
			<path style="fill:none;stroke:#263238;stroke-linecap:round;stroke-linejoin:round;stroke-miterlimit:10;" d="M369.244,131.699
				c0,0,4.642-0.464,6.848,2.669"/>
			<path style="fill:#263238;" d="M372.029,138.837c0,0.929-0.377,1.683-0.841,1.683c-0.465,0-0.841-0.753-0.841-1.683
				c0-0.929,0.377-1.683,0.841-1.683C371.653,137.154,372.029,137.908,372.029,138.837z"/>
			<path style="fill:#263238;" d="M400.58,122.803c-4.413-4.549-23.29-11.22-28.658-8.473l-0.006-0.009
				c-7.875,3.013-5.754,11.607-5.754,11.607l1.109-2.986c0,0,0.578,2.533,4.645,4.071v-1.9c0,0,3.159,1.538,8.136,1.267
				l-0.861-1.277c1.881,0.434,3.125,0.932,3.125,0.932c-3.018,5.6,0.391,9.561,0.391,9.561l-0.028,7.582
				c0,0,3.974,3.907,5.135,7.853c1.161,3.946,4.296,4.433,4.296,4.433C400.816,150.146,405.222,127.589,400.58,122.803z"/>
			<path style="fill:#FFFFFF;stroke:#263238;stroke-linecap:round;stroke-linejoin:round;stroke-miterlimit:10;" d="
				M381.778,144.301c0,0,4.294-5.783,6.499-4.864c2.205,0.918,2.786,6.257,1.625,8.694c-1.161,2.437-5.339,7.416-6.267,5.565"/>
		</g>
		<path style="fill:none;stroke:#263238;stroke-linecap:round;stroke-linejoin:round;stroke-miterlimit:10;" d="M321.846,196.925
			c0,0,3.165,9.152,0,20.229"/>
		<path style="fill:none;stroke:#263238;stroke-linecap:round;stroke-linejoin:round;stroke-miterlimit:10;" d="M314.461,218.798
			c0,0,3.956-6.133,4.747-10.35"/>
		<path style="fill:#263238;" d="M367.271,172.209l1.973,7.12c0,0-11.794,39.407-13.112,50.748l2.637,4.036l5.011-3.773
			c0,0,4.945-38.805,8.135-49.631l6.077-8.223l-3.828-0.373L367.271,172.209z"/>
		<path style="fill:#92E3A9;stroke:#263238;stroke-linecap:round;stroke-linejoin:round;stroke-miterlimit:10;" d="M370.347,165.645
			l2.321,4.827l20.022-4.827l5.183,4.348l-21.781,9.336l-3.424-6.842l-6.506,4.579C366.162,177.066,361.353,166.357,370.347,165.645
			z"/>
		<path style="fill:#FFFFFF;stroke:#263238;stroke-linecap:round;stroke-linejoin:round;stroke-miterlimit:10;" d="M416.725,232.385
			c0,0-8.308,7.319-13.648,16.418c-5.341,9.099-13.451,18.198-17.604,20.571c0,0,0.396,8.11,5.538,12.659
			c0,0,33.822-30.015,37.978-39.363C433.145,233.323,416.725,232.385,416.725,232.385z"/>
		<path style="fill:#92E3A9;stroke:#263238;stroke-linecap:round;stroke-linejoin:round;stroke-miterlimit:10;" d="M418.374,174.332
			c6.33,2.998,15.033,56.507,15.253,63.92c0.07,2.371-4.703,7.502-4.703,7.502s0.077,4.6-2.863,5.011c0,0-8.742-8.996-16.126-12.468
			c0,0-1.055-3.333,2.637-3.403l-5.73-25.033c-6.139-20.597,6.785-31.04,6.785-31.04"/>
		<path style="fill:none;stroke:#263238;stroke-linecap:round;stroke-linejoin:round;stroke-miterlimit:10;" d="M412.571,234.894
			c0,0,8.703,0.656,13.451,7.777"/>
		<g>
			<g>
				<path style="fill:#757575;stroke:#263238;stroke-linecap:round;stroke-linejoin:round;stroke-miterlimit:10;" d="
					M373.145,260.033c5.185-0.209,10.627-0.736,15.986-1.755l-0.423-4.804c-3.561,0.542-9.071,1.206-16.085,1.523
					C372.77,256.361,373,258.525,373.145,260.033z"/>
				<path style="fill:#757575;stroke:#263238;stroke-linecap:round;stroke-linejoin:round;stroke-miterlimit:10;" d="
					M391.093,257.879c0.988-0.212,1.974-0.435,2.951-0.683l-0.726-4.544c0,0-0.942,0.213-2.701,0.514L391.093,257.879z"/>
				<path style="fill:#757575;stroke:#263238;stroke-linecap:round;stroke-linejoin:round;stroke-miterlimit:10;" d="
					M370.372,255.084c-6.716,0.218-14.666,0.098-23.518-0.718l-0.576,4.337c4.793,0.657,13.897,1.634,24.331,1.408L370.372,255.084z
					"/>
				<path style="fill:#757575;stroke:#263238;stroke-linecap:round;stroke-linejoin:round;stroke-miterlimit:10;" d="
					M345.245,254.211c-0.675-0.068-1.35-0.136-2.035-0.212l-0.529,4.149c0,0,0.715,0.131,2.002,0.325L345.245,254.211z"/>
			</g>
			<polygon style="fill:#BFBFBF;stroke:#263238;stroke-linecap:round;stroke-linejoin:round;stroke-miterlimit:10;" points="
				360.945,260.464 352.242,260.158 352.901,254.628 361.604,254.934 			"/>
		</g>
		<polyline style="fill:none;stroke:#263238;stroke-linecap:round;stroke-linejoin:round;stroke-miterlimit:10;" points="
			318.418,459.527 337.011,459.527 345.714,457.681 349.407,459.527 357.055,459.527 		"/>
		
			<line style="fill:none;stroke:#263238;stroke-linecap:round;stroke-linejoin:round;stroke-miterlimit:10;" x1="396.483" y1="459.527" x2="417.451" y2="459.527"/>
		<path style="fill:none;stroke:#263238;stroke-linecap:round;stroke-linejoin:round;stroke-miterlimit:10;" d="M399.121,450.856
			c0,0,9.084-3.684,14.637-1.219"/>
		<polyline style="fill:none;stroke:#263238;stroke-linecap:round;stroke-linejoin:round;stroke-miterlimit:10;" points="
			379.425,192.607 394.044,194.102 390.618,209.44 382.901,210.421 376.384,206.275 377.993,194.102 		"/>
		<path style="fill:none;stroke:#263238;stroke-linecap:round;stroke-linejoin:round;stroke-miterlimit:10;" d="M415.736,194.102
			c0,0-6.266,2.45-6.923,11.975"/>
		<path style="fill:none;stroke:#263238;stroke-linecap:round;stroke-linejoin:round;stroke-miterlimit:10;" d="M337.802,188.67
			c0,0,0.71,10.165,3.718,15.665"/>
		<path style="fill:none;stroke:#263238;stroke-linecap:round;stroke-linejoin:round;stroke-miterlimit:10;" d="M343.963,245.597
			c0,0,25.518-1.938,33.019-8.861"/>
		<path style="fill:none;stroke:#263238;stroke-linecap:round;stroke-linejoin:round;stroke-miterlimit:10;" d="M401.692,200.089
			c0,0,1.601,6.378,4.757,8.359"/>
		<g style="opacity:0.2;">
			<path style="fill:none;stroke:#FFFFFF;stroke-linecap:round;stroke-linejoin:round;stroke-miterlimit:10;" d="M355.011,267.113
				c0,0-0.33,18.567,1.121,20.898c1.451,2.33,2.311,2.766,2.311,2.766"/>
			<path style="fill:none;stroke:#FFFFFF;stroke-linecap:round;stroke-linejoin:round;stroke-miterlimit:10;" d="M358.443,265.992
				c0,0,0.062,27.909,3.161,37.206"/>
			<path style="fill:none;stroke:#FFFFFF;stroke-linecap:round;stroke-linejoin:round;stroke-miterlimit:10;" d="M383.297,264.033
				c0,0,0.33,14.75,10.748,21.221"/>
			<path style="fill:none;stroke:#FFFFFF;stroke-linecap:round;stroke-linejoin:round;stroke-miterlimit:10;" d="M397.143,280.542
				c0,0,0.396,15.338,0,18.503c-0.396,3.165,2.176,18.073,2.176,24.267c0,6.194,2.176,15.887,2.176,18.063"/>
			<path style="fill:none;stroke:#FFFFFF;stroke-linecap:round;stroke-linejoin:round;stroke-miterlimit:10;" d="M362.527,307.966
				c0,0,15.139,4.896,18.35,4.316"/>
			<path style="fill:none;stroke:#FFFFFF;stroke-linecap:round;stroke-linejoin:round;stroke-miterlimit:10;" d="M362.527,311.28
				c-1.582-1.357-13.648,4.692-15.231,4.041"/>
			<path style="fill:none;stroke:#FFFFFF;stroke-linecap:round;stroke-linejoin:round;stroke-miterlimit:10;" d="M362.527,315.37
				c-0.396,0.685-12.264,17.179-13.846,15.361"/>
			<path style="fill:none;stroke:#FFFFFF;stroke-linecap:round;stroke-linejoin:round;stroke-miterlimit:10;" d="M364.505,313.225
				c0,0,12.568,12.522,16.372,13.906"/>
			<path style="fill:none;stroke:#FFFFFF;stroke-linecap:round;stroke-linejoin:round;stroke-miterlimit:10;" d="M399.121,435.486
				c0,0,9.099-8.345,10.088-10.085c0.989-1.741-8.703-3.719-8.703-3.719"/>
			<path style="fill:none;stroke:#FFFFFF;stroke-linecap:round;stroke-linejoin:round;stroke-miterlimit:10;" d="M401.494,440.074
				c0,0,6.725-2.381,11.077-0.299"/>
			<path style="fill:none;stroke:#FFFFFF;stroke-linecap:round;stroke-linejoin:round;stroke-miterlimit:10;" d="M345.121,431.246
				c0,0,8.703-5.354,8.506-8.547"/>
			<path style="fill:none;stroke:#FFFFFF;stroke-linecap:round;stroke-linejoin:round;stroke-miterlimit:10;" d="M357.055,433.352
				c0,0-10.154,5.602-13.121,5.57c-2.967-0.031,8.11,4.122,10.879,3.529"/>
		</g>
		<g>
			
				<line style="fill:#FFFFFF;stroke:#263238;stroke-linecap:round;stroke-linejoin:round;stroke-miterlimit:10;" x1="272.344" y1="162.154" x2="287.304" y2="159.167"/>
			
				<line style="fill:#FFFFFF;stroke:#263238;stroke-linecap:round;stroke-linejoin:round;stroke-miterlimit:10;" x1="271.635" y1="158.341" x2="297.679" y2="153.141"/>
			
				<line style="fill:#FFFFFF;stroke:#263238;stroke-linecap:round;stroke-linejoin:round;stroke-miterlimit:10;" x1="270.926" y1="154.529" x2="296.969" y2="149.329"/>
			
				<line style="fill:#FFFFFF;stroke:#263238;stroke-linecap:round;stroke-linejoin:round;stroke-miterlimit:10;" x1="270.216" y1="150.716" x2="296.26" y2="145.516"/>
			
				<line style="fill:#FFFFFF;stroke:#263238;stroke-linecap:round;stroke-linejoin:round;stroke-miterlimit:10;" x1="269.507" y1="146.903" x2="295.551" y2="141.703"/>
			
				<line style="fill:#FFFFFF;stroke:#263238;stroke-linecap:round;stroke-linejoin:round;stroke-miterlimit:10;" x1="268.797" y1="143.091" x2="294.841" y2="137.891"/>
			
				<line style="fill:#FFFFFF;stroke:#263238;stroke-linecap:round;stroke-linejoin:round;stroke-miterlimit:10;" x1="268.088" y1="139.278" x2="294.132" y2="134.078"/>
			
				<line style="fill:#FFFFFF;stroke:#263238;stroke-linecap:round;stroke-linejoin:round;stroke-miterlimit:10;" x1="274.326" y1="134.078" x2="293.422" y2="130.265"/>
		</g>
	</g>
</g>
<g id="Floor">
	
		<line style="fill:none;stroke:#263238;stroke-linecap:round;stroke-linejoin:round;stroke-miterlimit:10;" x1="42.144" y1="461.637" x2="461.637" y2="461.637"/>
</g>
</svg>
